<svg width="614" height="102" viewBox="0 0 614 102" fill="none" xmlns="http://www.w3.org/2000/svg">
<g clip-path="url(#clip0_14_37)">
<path d="M175.222 79.438C169.899 76.52 165.726 72.605 162.704 67.694C159.682 62.784 158.171 57.409 158.171 51.57C158.171 45.731 159.682 40.358 162.704 35.446C165.725 30.536 169.898 26.637 175.222 23.753C180.544 20.868 186.537 19.427 193.201 19.427C199.45 19.427 204.998 20.663 209.84 23.135C214.682 25.608 218.304 28.39 220.709 31.48L210.716 41.062C209.135 39.14 206.801 37.405 203.71 35.859C200.619 34.314 197.184 33.541 193.407 33.541C189.63 33.541 186.262 34.35 183.31 35.963C180.356 37.577 178.039 39.759 176.356 42.505C174.672 45.253 173.832 48.275 173.832 51.571C173.832 54.937 174.656 57.994 176.305 60.74C177.953 63.488 180.272 65.652 183.259 67.23C186.247 68.812 189.629 69.6 193.407 69.6C197.253 69.6 200.773 68.845 203.968 67.333C207.161 65.823 209.582 64.105 211.231 62.183L221.225 71.661C218.683 74.752 214.94 77.551 209.995 80.058C205.05 82.564 199.451 83.818 193.202 83.818C186.539 83.818 180.546 82.358 175.223 79.439L175.222 79.438Z" fill="white"/>
<path d="M251.924 82.2711H236.47V20.9701H251.924V44.1511H277.474V20.9701H292.928V82.2711H277.474V58.0601H251.924V82.2711Z" fill="white"/>
<path d="M330.533 82.2711H315.079V20.9701H330.533V82.2711Z" fill="white"/>
<path d="M374.522 82.271C374.522 76.777 375.501 72.123 377.459 68.31C379.417 64.498 381.751 61.425 384.465 59.089C387.178 56.755 390.595 54.282 394.716 51.671C398.356 49.405 401.017 47.465 402.7 45.851C404.383 44.238 405.224 42.366 405.224 40.236C405.224 38.382 404.571 36.888 403.267 35.755C401.961 34.621 400.107 34.055 397.704 34.055C395.368 34.055 393.204 34.691 391.213 35.961C389.221 37.232 387.641 38.794 386.474 40.649L373.905 34.261C375.828 30.346 378.902 26.895 383.127 23.907C387.351 20.92 392.484 19.427 398.529 19.427C402.993 19.427 406.959 20.32 410.428 22.105C413.895 23.892 416.592 26.295 418.515 29.317C420.438 32.34 421.4 35.637 421.4 39.208C421.4 42.574 420.662 45.492 419.185 47.965C417.707 50.438 415.888 52.516 413.725 54.198C411.561 55.883 408.762 57.753 405.329 59.813C402.581 61.461 400.399 62.888 398.786 64.088C397.172 65.29 395.884 66.612 394.923 68.054H421.194V82.273H374.523L374.522 82.271Z" fill="white"/>
<path d="M448.648 79.799C444.424 77.119 441.058 73.325 438.551 68.414C436.043 63.504 434.79 57.889 434.79 51.569C434.79 45.249 436.043 39.654 438.551 34.775C441.058 29.9 444.424 26.121 448.648 23.443C452.872 20.764 457.524 19.425 462.608 19.425C467.692 19.425 472.36 20.764 476.62 23.443C480.878 26.121 484.244 29.882 486.717 34.724C489.19 39.566 490.426 45.181 490.426 51.569C490.426 57.957 489.19 63.59 486.717 68.465C484.244 73.344 480.878 77.119 476.62 79.799C472.36 82.477 467.69 83.817 462.608 83.817C457.526 83.817 452.872 82.477 448.648 79.799ZM471.468 65.014C473.802 61.959 474.971 57.477 474.971 51.57C474.971 45.663 473.802 41.182 471.468 38.126C469.132 35.069 466.178 33.54 462.608 33.54C459.038 33.54 456.082 35.069 453.748 38.126C451.412 41.183 450.245 45.664 450.245 51.57C450.245 57.476 451.412 61.96 453.748 65.014C456.082 68.072 459.036 69.599 462.608 69.599C466.18 69.599 469.132 68.072 471.468 65.014Z" fill="white"/>
<path d="M501.448 82.271C501.448 76.777 502.427 72.123 504.385 68.31C506.343 64.498 508.677 61.425 511.391 59.089C514.104 56.755 517.521 54.282 521.642 51.671C525.282 49.405 527.943 47.465 529.626 45.851C531.309 44.238 532.15 42.366 532.15 40.236C532.15 38.382 531.497 36.888 530.193 35.755C528.887 34.621 527.033 34.055 524.63 34.055C522.294 34.055 520.13 34.691 518.139 35.961C516.147 37.232 514.567 38.794 513.4 40.649L500.831 34.261C502.754 30.346 505.828 26.895 510.053 23.907C514.277 20.92 519.41 19.427 525.455 19.427C529.919 19.427 533.885 20.32 537.354 22.105C540.821 23.892 543.518 26.295 545.441 29.317C547.364 32.34 548.326 35.637 548.326 39.208C548.326 42.574 547.588 45.492 546.111 47.965C544.633 50.438 542.814 52.516 540.651 54.198C538.487 55.883 535.688 57.753 532.255 59.813C529.507 61.461 527.325 62.888 525.712 64.088C524.098 65.29 522.81 66.612 521.849 68.054H548.12V82.273H501.449L501.448 82.271Z" fill="white"/>
<path d="M570.732 80.777C566.369 78.752 563.193 76.502 561.202 74.029L570.783 63.931C572.019 65.513 573.89 66.937 576.398 68.207C578.905 69.478 581.601 70.112 584.486 70.112C587.577 70.112 590.013 69.376 591.8 67.897C593.585 66.421 594.479 64.515 594.479 62.18C594.479 59.845 593.671 57.94 592.058 56.461C590.443 54.984 588.022 54.246 584.794 54.246C582.733 54.246 580.792 54.658 578.973 55.482C577.153 56.306 575.795 57.234 574.904 58.263L563.881 56.718L566.456 20.968H606.431V34.568H580.16L579.542 43.943C580.503 43.464 581.876 43 583.663 42.552C585.448 42.106 587.303 41.882 589.226 41.882C593.278 41.882 596.883 42.776 600.043 44.561C603.201 46.347 605.674 48.802 607.461 51.927C609.246 55.054 610.14 58.538 610.14 62.384C610.14 66.368 609.125 69.991 607.101 73.253C605.074 76.517 602.189 79.092 598.447 80.981C594.703 82.869 590.359 83.814 585.414 83.814C579.987 83.814 575.094 82.8 570.733 80.775L570.732 80.777Z" fill="white"/>
</g>
<g clip-path="url(#clip1_14_37)">
<path d="M17.9235 84.8462C17.9235 84.8462 14.8455 82.4912 11.9907 83.2435C9.2824 83.9568 9.01794 85.7591 9.01794 85.7591L11.4702 86.4099L9.66036 88.2746C9.66036 88.2746 12.3423 89.3201 14.6927 88.2351C16.5522 87.3758 17.9235 84.8468 17.9235 84.8468V84.8462Z" fill="white"/>
<path d="M7.25573 83.0911C7.25573 83.0911 6.6404 80.1739 4.53834 79.0882C2.42661 77.9981 1.33979 78.779 1.33979 78.779L2.34276 80.5844L0.00012207 80.7712C0.00012207 80.7712 0.856037 82.7826 3.42959 83.6158C5.02919 84.1334 7.25508 83.0917 7.25508 83.0917L7.25573 83.0911Z" fill="white"/>
<path d="M109.464 33.0914C109.464 33.0914 111.861 34.8943 114.901 34.3836C118.117 33.8424 119.283 31.8515 119.283 31.8515L116.283 31.0265L118.39 28.8361C118.39 28.8361 115.474 27.9659 112.884 28.9317C110.841 29.6942 109.464 33.0914 109.464 33.0914Z" fill="white"/>
<path d="M121.055 34.4429C121.055 34.4429 122.396 36.9483 124.773 37.2906C127.076 37.6221 128.327 36.6168 128.327 36.6168L126.601 35.3347L128.869 34.6392C128.869 34.6392 127.686 32.8823 125.54 32.7153C123.124 32.5272 121.055 34.4429 121.055 34.4429Z" fill="white"/>
<path d="M107.866 64.1694C109.116 59.661 109.746 54.9053 109.659 50.0004C109.169 22.243 85.9221 0.0547802 57.839 0.53928C39.6384 0.853568 23.8038 10.6156 15.0473 25.004C14.3984 26.2885 14.3984 27.0229 14.5829 27.6203C14.9725 28.952 16.2863 29.9739 20.9825 30.8027C24.9551 31.5033 29.7971 32.5749 35.1409 33.966C34.2804 32.4175 33.6116 29.2669 32.935 27.2843C32.3409 27.598 30.4808 27.8249 30.2266 27.7682C30.2266 27.7682 30.3169 25.8461 30.9471 24.6068C31.3335 23.8482 32.1668 23.2292 32.9692 23.0685H32.9743C34.3114 22.8027 35.9149 23.0794 36.4928 23.2866C35.8536 25.2501 34.4094 26.5588 34.4094 26.5588C34.71 27.5342 35.0919 28.7888 35.94 30.3137C36.9791 32.1822 38.4968 34.0845 39.5907 35.167C47.2339 37.3001 55.6285 40.0037 63.8329 43.144C63.4356 44.1181 63.0563 45.184 62.7358 46.3162C58.5123 44.6556 54.6333 43.1766 51.8876 42.1298C45.1628 39.567 33.2362 36.8953 24.5765 35.2288C24.4191 36.1131 24.1521 37.7208 24.1521 37.7208C24.1521 37.7208 24.7738 38.0791 24.8996 39.4153C24.9712 40.1746 24.7687 40.6036 24.6552 40.8892C24.4417 40.4818 24.0572 39.3892 22.9498 38.9805C21.4785 38.4367 20.5091 38.9493 20.3459 38.9939C20.4382 38.6688 20.5975 38.148 21.0896 37.812C21.8688 37.2759 22.3764 37.0789 22.3764 37.0789L23.2187 34.9713C18.489 34.0833 14.9705 33.542 14.2385 33.5541C11.4966 33.6013 10.7226 35.1192 9.97632 37.3383C8.92691 40.4621 7.72141 47.4217 7.79816 51.7599C8.28836 79.5172 31.5347 101.704 59.6172 101.22C79.7521 100.872 96.9903 88.9644 104.955 72.0215C105.087 71.7404 104.975 71.4765 104.733 71.2693C103.62 70.32 100.292 67.4934 96.6645 64.5322C96.6645 64.5322 98.8911 62.7739 99.7805 62.3679C102.867 63.6327 105.816 64.2141 107.097 64.4257C107.524 64.4965 107.737 64.4595 107.865 64.1713L107.866 64.1694ZM29.4249 27.8192C28.2975 28.0576 24.7693 28.2061 23.0685 27.3258C21.6946 26.6111 20.8277 25.4847 20.8516 25.0728L23.578 24.3174L21.1638 22.8633C21.1638 22.8633 21.8746 21.1579 24.2217 20.8615C24.2443 20.894 25.0093 22.0938 25.6233 22.6165C26.7056 23.5396 27.9343 24.3008 28.9199 24.6011C29.4191 24.7534 29.9919 24.8172 30.026 24.8185C29.5926 25.929 29.4326 27.3226 29.4249 27.8192ZM32.448 22.4502C31.5915 22.6886 30.4414 23.8023 30.3395 24.1255C28.9096 23.9916 27.8614 23.4727 26.4373 22.4062C25.3466 21.5889 24.9067 20.676 24.7306 20.3082C24.0302 18.8457 24.0134 17.3374 24.1817 16.814C24.1817 16.814 26.1838 16.9868 27.4235 17.4114C27.3216 15.6627 27.526 14.3928 27.526 14.3928C29.5558 14.9328 31.9398 16.2575 32.3751 19.2021C32.4235 19.5285 32.6138 21.1497 32.4474 22.4495L32.448 22.4502ZM38.7838 18.2063C38.6671 19.9053 37.5293 21.6227 36.6863 22.5655C35.8529 22.234 33.193 22.1932 33.1968 22.141C33.2555 21.3027 33.1968 20.203 33.1865 20.0952C33.1691 19.7752 33.0917 18.7144 32.8789 17.8767C32.6634 17.0276 32.1494 16.2575 32.1391 16.2486C32.0933 14.3431 33.1962 13.6578 33.4097 13.3365L35.5304 16.4086L37.0643 13.6743C37.5415 13.9459 38.5252 14.9863 38.7567 16.8421C38.809 17.2641 38.8148 17.7237 38.7838 18.2063ZM108.3 55.0251L107.091 56.7579L108.932 57.6848C108.673 58.0093 107.15 59.8689 105.547 60.0773C102.491 60.4751 101.279 59.5495 101.229 59.5233C101.379 57.6064 100.825 56.7368 100.734 56.631C100.875 56.4576 101.134 55.495 103.217 54.4654C105.13 53.5665 107.2 53.9796 108.3 55.0251ZM102.455 49.3941L102.417 51.7203C102.417 51.7203 103.271 50.9789 104.773 50.6914C104.993 51.0873 105.188 52.8391 105.08 53.3389C105.051 53.346 104.293 53.49 103.474 53.7871C102.802 54.0306 102.268 54.2793 101.661 54.7536C101.472 54.9008 100.762 55.6601 100.382 56.1478C100.335 56.209 99.8534 55.6492 98.904 55.1609C98.4931 54.1792 98.951 51.4322 100.165 50.4096C101.149 49.5828 102.138 49.2507 102.457 49.3941H102.455ZM93.8124 40.3339C95.5719 37.4403 98.7163 36.3827 98.7163 36.3827L98.3731 40.0949L101.496 38.4004C101.496 38.4004 102.605 40.4525 100.161 43.9365C97.9919 47.0283 93.0061 47.0787 93.0061 47.0787C93.0061 47.0787 92.4192 42.6289 93.8124 40.3339ZM82.4798 51.4679C84.7985 52.7174 87.5411 54.2824 90.5145 56.1503C88.5492 55.7245 86.3704 55.4472 84.1619 55.5262C83.3731 55.5543 81.7083 55.7704 81.6651 55.778C82.285 54.5751 82.4346 52.528 82.4798 51.4679ZM77.3817 39.4905C77.3817 39.4905 80.29 41.9462 79.9856 50.9445C79.6889 59.7305 70.0223 64.3938 70.0223 64.3938C70.0223 64.3938 64.7978 57.9506 64.5166 52.2845C64.0845 43.5744 69.3818 38.6197 69.3818 38.6197L72.6623 45.629L77.3817 39.4905ZM61.6812 11.2149C65.8898 9.1315 69.3567 10.9069 69.3567 10.9069L66.5277 13.3811L70.1526 13.921C70.1526 13.921 69.8862 15.912 65.9556 17.5478C62.4655 18.9936 58.1324 16.698 58.1324 16.698C58.1324 16.698 59.2773 12.4044 61.6812 11.2149ZM43.0763 15.8565L46.6173 15.043L44.0451 12.9036C44.0451 12.9036 45.4802 11.2027 49.6481 12.0978C53.8161 12.9928 55.0306 17.6536 55.0306 17.6536C55.0306 17.6536 51.3742 19.3659 48.7032 19.0631C44.6604 18.6041 43.0763 15.8565 43.0763 15.8565ZM55.4815 25.6306C54.0728 28.6977 50.6582 29.8573 50.6582 29.8573L50.9214 26.3848L47.5596 27.8919C47.5596 27.8919 46.8727 26.307 48.9851 22.6401C51.0968 18.979 55.7575 18.9407 55.7575 18.9407C55.7575 18.9407 56.5922 23.212 55.4815 25.63V25.6306ZM52.1423 10.8222C50.6311 7.28403 52.7061 3.85301 52.7061 3.85301L54.9823 6.56684L55.9498 3.52214C55.9498 3.52214 57.819 4.22403 58.9096 7.92918C60.1016 11.9786 56.5412 15.9916 56.5412 15.9916C56.5412 15.9916 53.1872 13.2695 52.1423 10.8222ZM59.5985 25.9768C56.4225 23.2024 57.5352 18.6073 57.5352 18.6073C57.5352 18.6073 61.4883 18.3039 63.5478 19.9843C66.1568 22.1065 67.2785 25.6893 67.2785 25.6893L63.6581 24.8127L64.6469 28.0551C64.6469 28.0551 62.2372 28.2801 59.5991 25.9762L59.5985 25.9768ZM23.7328 43.1817C22.9788 44.3056 21.4457 44.6122 20.3085 43.867C19.1714 43.1217 18.8611 41.6064 19.6152 40.4825C20.3692 39.3586 21.9023 39.0519 23.0388 39.7972C24.1759 40.5424 24.4862 42.0577 23.7322 43.181L23.7328 43.1817ZM31.2051 85.4689C28.589 86.4379 25.5975 85.4301 25.5975 85.4301L27.7305 83.223L25.1524 82.3191C25.1524 82.3191 25.4743 80.9293 28.836 79.9272C31.8153 79.0391 35.068 81.7364 35.068 81.7364C35.068 81.7364 33.2749 84.7059 31.2051 85.4696V85.4689ZM40.7207 76.0378C39.6159 78.4118 37.4829 78.6738 37.4829 78.6738L37.6622 76.6377L35.8336 77.4498C35.8336 77.4498 35.117 76.6568 36.3825 74.4447C37.5028 72.4812 40.6969 72.216 40.6969 72.216C40.6969 72.216 41.3967 74.5843 40.7207 76.0378ZM47.877 49.2857C47.877 49.2857 52.1804 47.7251 59.0051 51.5986C66.9018 56.0815 66.4393 66.284 66.4393 66.284C66.4393 66.284 58.1943 67.6935 52.9421 65.4208C44.9829 61.9637 43.3401 56.661 43.3401 56.661L50.4776 55.8175L47.8776 49.2851L47.877 49.2857ZM48.7039 87.4267L51.8269 80.4652L44.7462 80.9707C44.7462 80.9707 44.432 76.8557 50.2609 71.6256C57.005 65.5738 66.8599 69.3115 66.8599 69.3115C66.8599 69.3115 65.8556 77.4288 62.065 81.6905C56.5115 87.9342 48.7039 87.4267 48.7039 87.4267ZM83.9013 90.7219L77.7532 86.8338L77.3179 93.7239C77.3179 93.7239 73.2273 93.4275 68.8381 86.3774C64.0619 78.7063 69.7417 69.5372 69.7417 69.5372C69.7417 69.5372 77.641 71.8124 80.8008 76.5529C85.6577 83.8401 83.9013 90.7219 83.9013 90.7219ZM90.7093 65.637L96.8058 69.2223C96.8058 69.2223 93.9801 73.5375 86.8761 73.7778C78.7988 74.0513 71.8347 67.1147 71.8347 67.1147C71.8347 67.1147 76.5381 59.1121 82.2024 58.2012C89.3677 57.0307 97.2612 61.0865 97.2612 61.0865L90.7093 65.637ZM96.9599 58.2158C97.3024 58.0023 97.6585 57.6535 97.8565 57.4285C98.4828 56.5449 98.6492 56.0394 98.7195 55.7468C99.0575 55.8564 100.983 56.8956 100.544 59.0739C100.462 59.4825 100.312 59.5794 100.246 59.5297C100.246 59.5297 97.8126 58.5798 96.9606 58.2158H96.9599Z" fill="white"/>
</g>
<defs>
<clipPath id="clip0_14_37">
<rect width="460" height="65" fill="white" transform="translate(154 19)"/>
</clipPath>
<clipPath id="clip1_14_37">
<rect width="129" height="102" fill="white"/>
</clipPath>
</defs>
</svg>
