<svg width="624" height="137" viewBox="0 0 624 137" fill="none" xmlns="http://www.w3.org/2000/svg">
<g clip-path="url(#clip0_844_80)">
<path d="M42.1998 53.9C38.3998 57.7 32.1998 57.7 28.3998 53.9C24.5998 50.1 24.5998 43.9 28.3998 40.1C32.1998 36.3 38.3998 36.3 42.1998 40.1C45.9998 43.8 45.9998 50.1 42.1998 53.9Z" fill="white"/>
<path d="M83.6998 95.3002C87.4998 91.5002 93.6998 91.5002 97.4998 95.3002C101.3 99.1002 101.3 105.3 97.4998 109.1C93.6998 112.9 87.4998 112.9 83.6998 109.1C79.8998 105.3 79.8998 99.1002 83.6998 95.3002Z" fill="white"/>
<path d="M83.6998 40.0004C87.4998 36.2004 93.6998 36.2004 97.4998 40.0004C101.3 43.8004 101.3 50.0004 97.4998 53.8004C93.6998 57.6004 87.4998 57.6004 83.6998 53.8004C79.8998 50.1004 79.8998 43.8004 83.6998 40.0004Z" fill="white"/>
<path d="M28.3998 95.3002C32.1998 91.5002 38.3998 91.5002 42.1998 95.3002C45.9998 99.1002 45.9998 105.3 42.1998 109.1C38.3998 112.9 32.1998 112.9 28.3998 109.1C24.5998 105.3 24.5998 99.1002 28.3998 95.3002Z" fill="white"/>
<path d="M76.6999 83.3996H75.9999C73.6999 83.5996 71.5999 81.9996 70.9999 81.1996C70.9999 81.1996 70.7999 80.9996 70.4999 80.6996C73.5999 77.0996 73.5999 71.7996 70.4999 68.0996C70.7999 67.7996 70.9999 67.5996 71.1999 67.3996C71.9999 66.5996 74.1999 64.9996 76.1999 65.2996H76.9999C79.6999 65.2996 81.8999 63.0996 81.8999 60.3996C81.8999 57.6996 79.6999 55.4996 76.9999 55.4996C74.2999 55.4996 72.0999 57.6996 72.0999 60.3996V60.8996C72.2999 63.1996 70.7999 65.2996 69.9999 65.8996C69.9999 65.8996 69.7999 66.0996 69.4999 66.3996C65.8999 63.2996 60.4999 63.3996 56.8999 66.4996C56.4999 66.1996 56.1999 65.7996 56.1999 65.7996C55.3999 64.9996 53.7999 62.7996 54.0999 60.7996V59.9996C54.0999 57.2996 51.8999 55.0996 49.2999 55.0996C46.6999 55.0996 44.3999 57.2996 44.3999 59.9996C44.3999 62.6996 46.5999 64.8996 49.2999 64.8996H49.7999C52.0999 64.6996 54.1999 66.1996 54.7999 66.9996L55.4999 67.6996C52.4999 71.2996 52.4999 76.5996 55.4999 80.1996L54.7999 80.8996C53.9999 81.6996 51.7999 83.2996 49.7999 82.9996H48.9999C46.2999 82.9996 44.0999 85.1996 44.0999 87.8996C44.0999 90.5996 46.2999 92.6996 48.9999 92.6996C51.6999 92.6996 53.8999 90.4996 53.8999 87.8996V87.3996C53.6999 85.0996 55.1999 82.9996 55.9999 82.3996C55.9999 82.3996 56.1999 82.1996 56.6999 81.6996C60.2999 84.7996 65.6999 84.7996 69.2999 81.6996C69.5999 82.1996 69.7999 82.4996 69.7999 82.4996C70.5999 83.2996 72.1999 85.4996 71.8999 87.4996V88.2996C71.8999 90.9996 74.0999 93.0996 76.7999 93.0996C79.4999 93.0996 81.6999 90.8996 81.6999 88.2996C81.5999 85.5996 79.3999 83.3996 76.6999 83.3996Z" fill="white"/>
<path d="M122.8 67.6995C119 63.8995 112.8 63.8995 109 67.6995C108 68.6995 107.2 69.8995 106.8 71.0995C105.6 73.2995 102.5 73.4995 101.4 73.4995H101.3C101.1 72.0995 100.4 70.6995 99.1999 69.3995C96.3999 66.5995 91.5999 66.5995 88.7999 69.3995C85.9999 72.1995 85.9999 76.9995 88.7999 79.7995C91.5999 82.5995 96.3999 82.5995 99.1999 79.7995C100.4 78.5995 101.1 77.1995 101.3 75.5995H101.5C102.6 75.5995 105.7 75.7995 106.6 77.8995C107 79.1995 107.8 80.3995 108.9 81.3995C112.7 85.1995 118.9 85.1995 122.7 81.3995C126.4 77.5995 126.4 71.3995 122.7 67.5995L122.8 67.6995ZM56.0999 14.6995C52.2999 18.4995 52.2999 24.6995 56.0999 28.4995C57.1999 29.5995 58.3999 30.2995 59.5999 30.7995C61.6999 31.9995 61.8999 34.9995 61.8999 36.0995V36.2995C60.3999 36.4995 58.8999 37.1995 57.7999 38.3995C54.9999 41.1995 54.9999 45.7995 57.7999 48.7995C60.5999 51.5995 65.3999 51.5995 68.1999 48.7995C70.9999 45.9995 70.9999 41.1995 68.1999 38.3995C65.3999 35.5995 65.5999 36.4995 64.0999 36.2995V35.9995C64.0999 34.7995 64.3999 31.4995 66.6999 30.5995C66.8999 30.4995 67.0999 30.3995 67.1999 30.2995C68.0999 29.8995 68.9999 29.1995 69.6999 28.3995C73.4999 24.5995 73.4999 18.3995 69.6999 14.5995C65.8999 10.8995 59.5999 10.8995 55.8999 14.6995H56.0999ZM66.2999 118.4C64.1999 117.2 63.9999 114.2 63.9999 113.1V112.9C65.4999 112.7 66.9999 112 68.0999 110.8C70.8999 108 70.8999 103.2 68.0999 100.4C65.2999 97.5995 60.4999 97.5995 57.6999 100.4C54.8999 103.2 54.8999 108 57.6999 110.8C58.7999 111.9 60.2999 112.7 61.7999 112.9V113.2C61.7999 114.4 61.4999 117.7 59.1999 118.6C58.9999 118.7 58.7999 118.8 58.6999 118.9C57.7999 119.3 56.8999 120 56.1999 120.8C52.3999 124.6 52.3999 130.8 56.1999 134.6C59.9999 138.4 66.1999 138.4 69.9999 134.6C73.7999 130.8 73.7999 124.6 69.9999 120.8C68.9999 119.6 67.7999 118.8 66.4999 118.4H66.2999ZM26.4999 69.2995C25.2999 70.4995 24.5999 71.8995 24.3999 73.4995H24.1999C23.0999 73.4995 19.9999 73.2995 19.0999 71.1995C18.6999 69.8995 17.8999 68.6995 16.7999 67.6995C12.9999 63.8995 6.7999 63.8995 2.9999 67.6995C-0.800098 71.4995 -0.800098 77.6995 2.9999 81.4995C6.7999 85.2995 12.9999 85.2995 16.7999 81.4995C17.7999 80.4995 18.5999 79.2995 18.9999 78.0995C20.0999 75.8995 23.2999 75.6995 24.3999 75.6995H24.4999C24.6999 77.0995 25.3999 78.4995 26.5999 79.7995C29.3999 82.5995 34.1999 82.5995 36.9999 79.7995C39.7999 76.9995 39.7999 72.3995 36.9999 69.3995C34.1999 66.5995 29.3999 66.5995 26.5999 69.3995L26.4999 69.2995Z" fill="white"/>
<path d="M201.8 40.9002C200.9 40.1002 199.9 39.7002 198.6 39.7002C197.3 39.7002 195.5 40.6002 194.6 42.5002L171.1 101L146.6 42.7002C145.7 40.7002 144.3 39.7002 142.4 39.7002C140.5 39.7002 140.5 40.1002 139.5 40.9002C138.5 41.7002 138 42.7002 138 44.0002C138 45.3002 138 44.7002 138.1 45.1002C138.1 45.5002 138.3 45.8002 138.4 46.1002L166.3 112.5C166.7 113.4 167.2 114 168 114.5C168.8 115 169.5 115.2 170.3 115.3C171.2 115.3 172 115.1 172.7 114.6C173.5 114.1 174 113.4 174.5 112.5L202.6 46.0002C202.9 45.3002 203 44.6002 203 44.0002C203 42.9002 202.6 41.9002 201.7 41.1002L201.8 40.9002Z" fill="white"/>
<path d="M224.6 41.0998C223.7 40.1998 222.7 39.7998 221.5 39.7998C220.3 39.7998 219 40.1998 218.2 41.0998C217.3 41.9998 216.9 42.9998 216.9 44.1998V110.7C216.9 111.9 217.3 113 218.1 113.8C218.9 114.7 220 115.1 221.4 115.1C222.8 115.1 223.7 114.7 224.6 113.8C225.5 112.9 225.9 111.9 225.9 110.7V44.2998C225.9 43.0998 225.5 41.9998 224.6 41.1998V41.0998Z" fill="white"/>
<path d="M293.4 86.3004C292.2 83.8004 290.5 81.7004 288.4 80.0004C286.2 78.3004 283.7 77.0004 280.7 75.9004C277.7 74.8004 274.5 73.8004 271 72.9004C267.8 72.0004 264.8 71.1004 262.2 69.9004C259.5 68.8004 257.4 67.4004 255.8 65.6004C254.2 63.8004 253.4 61.6004 253.4 58.9004C253.4 56.2004 254.1 54.4004 255.5 52.7004C256.9 51.0004 258.9 49.6004 261.4 48.7004C263.9 47.7004 266.8 47.2004 270.1 47.2004C273.4 47.2004 274.5 47.5004 276.7 48.2004C278.9 48.8004 280.9 49.7004 282.8 50.8004C284.7 51.9004 286.3 53.1004 287.5 54.5004C288.1 55.0004 288.9 55.3004 289.7 55.3004C290.8 55.3004 291.9 54.9004 292.8 54.0004C293.7 53.1004 294.1 52.2004 294.1 51.1004C294.1 50.0004 293.4 48.4004 291.9 47.0004C289.5 44.5004 286.4 42.5004 282.5 41.1004C278.6 39.7004 274.4 38.9004 270.1 38.9004C265.8 38.9004 260.8 39.8004 256.9 41.5004C253.1 43.2004 250.1 45.6004 247.9 48.7004C245.7 51.8004 244.7 55.3004 244.7 59.4004C244.7 63.5004 245.3 65.6004 246.4 68.0004C247.5 70.4004 249.1 72.5004 251.1 74.1004C253.1 75.8004 255.5 77.2004 258.3 78.3004C261.1 79.4004 264.1 80.4004 267.4 81.2004C271.1 82.1004 274.4 83.2004 277.2 84.4004C280 85.6004 282.3 87.2004 283.9 89.0004C285.5 90.9004 286.3 93.2004 286.3 96.1004C286.3 99.0004 285.5 100.5 284 102.3C282.5 104.1 280.5 105.5 278 106.5C275.5 107.5 272.7 108 269.5 108C266.3 108 261.7 107.3 258.5 105.8C255.2 104.4 252.2 102.3 249.4 99.6004C248.6 98.8004 247.7 98.4004 246.7 98.4004C245.7 98.4004 244.5 98.8004 243.6 99.7004C242.8 100.6 242.4 101.6 242.4 102.8C242.4 104 242.6 104.2 242.9 104.8C243.2 105.4 243.6 106 244.1 106.4C247.8 109.8 251.7 112.4 255.7 113.9C259.7 115.5 264.4 116.3 269.7 116.3C275 116.3 278.8 115.4 282.7 113.6C286.5 111.8 289.6 109.4 291.8 106.3C294 103.2 295.1 99.7004 295.1 95.8004C295.1 91.9004 294.5 88.9004 293.3 86.4004L293.4 86.3004Z" fill="white"/>
<path d="M361 108.3C360.2 107.5 359.2 107.1 358.1 107.1H328.6L346.5 87.3998C349.6 83.9998 352.1 80.8998 354.1 77.8998C356.1 74.8998 357.6 71.9998 358.6 69.1998C359.6 66.3998 360.1 63.5998 360.1 60.8998C360.1 56.5998 359.2 52.7998 357.3 49.4998C355.4 46.1998 352.8 43.5998 349.3 41.6998C345.9 39.7998 341.7 38.7998 336.7 38.7998C331.7 38.7998 329 39.7998 325.3 41.6998C321.6 43.5998 318.6 46.3998 316.4 49.9998C315.7 50.7998 315.1 51.4998 314.6 52.2998C314.1 52.9998 313.9 53.7998 313.9 54.5998C313.9 55.3998 314.4 56.4998 315.3 57.2998C316.2 58.0998 317.2 58.4998 318.3 58.4998C319.4 58.4998 319.6 58.2998 320.2 57.9998C320.8 57.5998 321.4 57.0998 321.9 56.3998C323.4 53.1998 325.5 50.8998 328.1 49.2998C330.7 47.7998 333.4 46.9998 336.2 46.9998C339 46.9998 341.9 47.5998 344.1 48.7998C346.4 49.9998 348.1 51.6998 349.3 53.8998C350.5 56.0998 351.1 58.5998 351.1 61.3998C351.1 64.1998 350.2 67.6998 348.3 70.8998C346.4 74.1998 343.8 77.6998 340.3 81.3998L315.9 108C315.1 108.9 314.7 110 314.7 111.1C314.7 112.2 315.1 113.4 315.9 114.2C316.7 115 317.7 115.3 319 115.3H358.1C359.2 115.3 360.2 114.9 361 114.2C361.8 113.4 362.2 112.5 362.2 111.3C362.2 110.1 361.8 109.2 361 108.4V108.3Z" fill="white"/>
<path d="M425.7 57.6002C423.7 51.8002 420.7 47.2002 416.7 43.8002C412.7 40.4002 407.7 38.7002 401.8 38.7002C395.9 38.7002 390.9 40.4002 386.8 43.8002C382.8 47.2002 379.8 51.8002 377.8 57.6002C375.8 63.4002 374.8 70.1002 374.8 77.5002C374.8 84.9002 375.8 91.5002 377.8 97.4002C379.8 103.2 382.8 107.9 386.8 111.2C390.8 114.6 395.8 116.3 401.8 116.3C407.8 116.3 412.7 114.6 416.7 111.2C420.7 107.8 423.7 103.2 425.7 97.4002C427.7 91.6002 428.7 84.9002 428.7 77.5002C428.7 70.1002 427.7 63.4002 425.7 57.6002ZM417.4 93.5002C416 98.0002 414 101.5 411.4 103.9C408.8 106.3 405.6 107.6 401.9 107.6C398.2 107.6 394.9 106.4 392.3 103.9C389.7 101.5 387.7 98.0002 386.3 93.5002C384.9 89.0002 384.2 83.7002 384.2 77.5002C384.2 71.3002 384.9 65.9002 386.3 61.4002C387.7 56.9002 389.7 53.5002 392.3 51.1002C394.9 48.7002 398.1 47.5002 401.9 47.5002C405.7 47.5002 408.8 48.7002 411.4 51.1002C414 53.5002 416 57.0002 417.4 61.4002C418.8 65.9002 419.5 71.2002 419.5 77.5002C419.5 83.8002 418.8 89.0002 417.4 93.5002Z" fill="white"/>
<path d="M487.5 108.3C486.7 107.5 485.7 107.1 484.6 107.1H455.1L473 87.3998C476.1 83.9998 478.6 80.8998 480.6 77.8998C482.6 74.8998 484.1 71.9998 485.1 69.1998C486.1 66.3998 486.6 63.5998 486.6 60.8998C486.6 56.5998 485.7 52.7998 483.8 49.4998C481.9 46.1998 479.3 43.5998 475.8 41.6998C472.4 39.7998 468.2 38.7998 463.2 38.7998C458.2 38.7998 455.5 39.7998 451.8 41.6998C448.1 43.5998 445.1 46.3998 442.9 49.9998C442.2 50.7998 441.6 51.4998 441.1 52.2998C440.6 52.9998 440.4 53.7998 440.4 54.5998C440.4 55.3998 440.9 56.4998 441.8 57.2998C442.7 58.0998 443.7 58.4998 444.8 58.4998C445.9 58.4998 446.1 58.2998 446.7 57.9998C447.3 57.5998 447.9 57.0998 448.4 56.3998C449.9 53.1998 452 50.8998 454.6 49.2998C457.2 47.7998 459.9 46.9998 462.7 46.9998C465.5 46.9998 468.4 47.5998 470.6 48.7998C472.9 49.9998 474.6 51.6998 475.8 53.8998C477 56.0998 477.6 58.5998 477.6 61.3998C477.6 64.1998 476.7 67.6998 474.8 70.8998C472.9 74.1998 470.3 77.6998 466.8 81.3998L442.4 108C441.6 108.9 441.2 110 441.2 111.1C441.2 112.2 441.6 113.4 442.4 114.2C443.2 115 444.2 115.3 445.5 115.3H484.6C485.7 115.3 486.7 114.9 487.5 114.2C488.3 113.4 488.7 112.5 488.7 111.3C488.7 110.1 488.3 109.2 487.5 108.4V108.3Z" fill="white"/>
<path d="M545.4 76.7998C543.2 73.0998 540.3 70.2998 536.6 68.0998C532.9 65.9998 528.7 64.8998 524.1 64.8998C519.5 64.8998 519.7 65.1998 517.6 65.6998C515.5 66.1998 513.6 66.7998 512 67.4998C511.5 67.6998 511.1 67.8998 510.7 68.0998L513.9 47.9998H542.8C543.9 47.9998 544.9 47.5998 545.7 46.8998C546.5 46.0998 546.9 45.1998 546.9 43.9998C546.9 42.7998 546.5 41.7998 545.7 40.9998C544.9 40.1998 543.9 39.7998 542.8 39.7998H510.8C509.7 39.7998 508.7 40.1998 507.8 40.8998C507 41.5998 506.5 42.3998 506.3 43.3998L502.1 71.7998C502 72.6998 502.1 73.4998 502.3 74.3998C502.6 75.2998 503.1 76.0998 503.9 76.6998C504.7 77.2998 505.8 77.6998 507.1 77.6998C508.4 77.6998 509.2 77.2998 510.7 76.4998C512.1 75.6998 513.9 74.8998 515.9 74.0998C517.9 73.2998 520.2 72.8998 522.7 72.8998C525.2 72.8998 529.1 73.5998 531.7 74.9998C534.3 76.3998 536.4 78.2998 537.8 80.7998C539.3 83.1998 540 86.0998 540 89.4998C540 92.8998 539.2 95.8998 537.5 98.6998C535.8 101.5 533.5 103.6 530.5 105.2C527.5 106.8 524.2 107.6 520.4 107.6C516.6 107.6 516.5 107.2 514.6 106.5C512.7 105.8 510.9 104.8 509.3 103.6C508.1 102.7 507 102.2 506.1 102.2C505.2 102.2 503.9 102.6 503.1 103.4C502.3 104.2 502 105.1 502 105.9C502 106.7 502.2 107.4 502.5 108.2C502.9 109 503.3 109.6 503.9 110.1C506.1 111.9 508.7 113.3 511.7 114.2C514.7 115.1 517.6 115.6 520.5 115.6C523.4 115.6 528.2 114.9 531.6 113.6C535 112.3 538 110.4 540.5 108.1C543 105.8 545 103 546.4 99.7998C547.8 96.5998 548.5 93.0998 548.5 89.2998C548.5 85.4998 547.4 80.3998 545.3 76.6998L545.4 76.7998Z" fill="white"/>
<path d="M533.8 34.1998C537.2 29.1998 541.6 24.9998 546.8 21.8998L565.9 54.9998L566.3 55.5998L565.7 55.1998L552 47.2998C551.9 47.5998 551.8 47.8998 551.6 48.1998L565.7 56.3998H527.6C527.6 56.6998 527.6 57.0998 527.6 57.3998H565.1L564.7 57.9998L546.4 68.5998C546.6 68.7998 546.9 69.0998 547.1 69.3998L563.7 59.7998L552.6 78.9998C553.4 81.3998 553.9 83.7998 554.1 86.4998H567.2V97.6998C562.5 97.6998 557.9 96.7998 553.7 95.1998C553.5 96.4998 553.1 97.7998 552.7 99.0998C552.7 99.2998 552.7 99.2998 552.7 99.2998C555.8 100.4 559.1 101.1 562.5 101.5C562 101.7 561.6 102.2 561.6 102.8V112.2H544.4C542.7 113.7 540.9 115 539 116.2H614.9C616 116.2 616.9 115.3 616.9 114.2C616.9 113.1 616 112.2 614.9 112.2H602.1L599.5 107.7H599.6C600.4 107.7 601 107.1 601 106.3V96.7998C601 95.9998 600.4 95.3998 599.6 95.3998H590.7C597.1 91.5998 602.5 86.1998 606.3 79.7998V89.1998C606.3 89.9998 606.9 90.5998 607.7 90.5998H617.2C618 90.5998 618.6 89.9998 618.6 89.1998V79.6998C618.6 78.8998 618 78.2998 617.2 78.2998H607.7C607.5 78.2998 607.3 78.2998 607.1 78.3998C609.9 73.2998 611.7 67.6998 612.4 61.6998C612.4 62.3998 613.1 62.8998 613.8 62.8998H623.3C624.1 62.8998 624.7 62.2998 624.7 61.4998V51.9998C624.7 51.1998 624.1 50.5998 623.3 50.5998H613.8C613.1 50.5998 612.5 51.0998 612.4 51.7998C611.8 45.8998 610 40.2998 607.3 35.2998C607.4 35.2998 607.6 35.2998 607.8 35.2998H617.3C618.1 35.2998 618.7 34.6998 618.7 33.8998V24.3998C618.7 23.5998 618.1 22.9998 617.3 22.9998H607.8C607 22.9998 606.4 23.5998 606.4 24.3998V33.5998C602.6 27.1998 597.2 21.7998 590.8 17.9998H599.7C600.5 17.9998 601.1 17.3998 601.1 16.5998V7.0998C601.1 6.2998 600.5 5.6998 599.7 5.6998H590.2C589.4 5.6998 588.8 6.2998 588.8 7.0998V16.5998C588.8 16.6998 588.8 16.7998 588.8 16.8998C584 14.2998 578.7 12.5998 573 11.9998C573.6 11.7998 574 11.2998 574 10.6998V1.1998C574 0.399804 573.4 -0.200195 572.6 -0.200195H563.1C562.3 -0.200195 561.7 0.399804 561.7 1.1998V10.6998C561.7 11.2998 562.1 11.7998 562.7 11.9998C556.9 12.6998 551.5 14.3998 546.6 16.9998C546.6 16.8998 546.6 16.7998 546.6 16.5998V7.0998C546.6 6.2998 546 5.6998 545.2 5.6998H535.7C534.9 5.6998 534.3 6.2998 534.3 7.0998V16.5998C534.3 17.3998 534.9 17.9998 535.7 17.9998H544.7C538.5 21.6998 533.3 26.7998 529.5 32.9998V24.3998C529.5 23.5998 528.9 22.9998 528.1 22.9998H518.6C517.8 22.9998 517.2 23.5998 517.2 24.3998V33.7998H534L533.8 34.1998ZM602.8 36.1998L569.8 55.2998L569.2 55.6998L569.6 55.0998L588.7 21.9998C594.6 25.4998 599.5 30.3998 602.9 36.2998L602.8 36.1998ZM568.2 97.7998V86.5998H582.4L586.3 93.2998C580.9 96.0998 574.7 97.6998 568.2 97.7998ZM568.2 82.5998V61.8998L580.1 82.5998H568.2ZM568.2 55.0998V16.1998C575.3 16.1998 581.9 18.1998 587.7 21.4998L568.2 55.1998V55.0998ZM547.7 21.3998C553.5 18.0998 560.1 16.2998 567.2 16.1998V55.0998L547.7 21.3998ZM555.3 82.5998L567.2 61.8998V82.5998H555.3ZM590 108H594.8L597.4 112.5H573.9V103.1C573.9 102.5 573.5 101.9 572.9 101.8C578.6 101.1 583.9 99.3998 588.7 96.8998C588.7 96.8998 588.7 97.0998 588.7 97.1998V106.7C588.7 107.5 589.3 108.1 590.1 108.1L590 108ZM589.8 91.2998L571.7 59.8998L602.8 77.8998C599.6 83.2998 595.1 87.8998 589.8 91.2998ZM603.2 76.9998L570.6 58.1998L570.2 57.5998H608.4C608.4 64.6998 606.4 71.2998 603.2 77.0998V76.9998ZM569.7 56.4998L603.3 36.9998C606.5 42.7998 608.4 49.3998 608.5 56.4998H569.7Z" fill="white"/>
</g>
<defs>
<clipPath id="clip0_844_80">
<rect width="624" height="137" fill="white"/>
</clipPath>
</defs>
</svg>
